<?xml version="1.0" standalone="no"?>
<!DOCTYPE svg PUBLIC "-//W3C//DTD SVG 20010904//EN"
 "http://www.w3.org/TR/2001/REC-SVG-20010904/DTD/svg10.dtd">
<svg version="1.0" xmlns="http://www.w3.org/2000/svg"
 width="425.000000pt" height="435.000000pt" viewBox="0 0 425.000000 435.000000"
 preserveAspectRatio="xMidYMid meet">

<g transform="translate(0.000000,435.000000) scale(0.100000,-0.100000)"
fill="#000000" stroke="none">
<path d="M1895 4115 c-680 -108 -1242 -515 -1535 -1110 -233 -475 -274 -1018
-113 -1520 170 -529 533 -947 1038 -1195 557 -275 1213 -276 1773 -5 509 247
880 676 1051 1215 71 227 96 420 88 680 -5 150 -12 211 -36 320 -69 326 -174
562 -360 815 -88 120 -292 325 -416 417 -236 177 -541 309 -850 369 -143 28
-502 36 -640 14z m421 -245 c818 -65 1479 -678 1611 -1493 23 -139 23 -398 0
-540 -63 -396 -243 -739 -535 -1018 -624 -597 -1586 -650 -2287 -125 -75 56
-239 212 -295 281 -248 303 -385 661 -406 1065 -10 185 24 422 91 625 103 313
315 619 570 820 28 22 52 42 55 45 18 20 173 113 265 160 207 104 450 170 685
183 30 2 69 4 86 5 17 1 89 -3 160 -8z"/>
<path d="M1962 3468 c-14 -14 -16 -48 -3 -48 13 0 28 23 28 43 0 20 -8 22 -25
5z"/>
<path d="M2130 3451 c0 -11 -5 -23 -10 -26 -6 -4 -20 -25 -31 -48 -12 -23 -26
-45 -32 -48 -10 -7 -37 -75 -37 -96 0 -7 9 -13 19 -13 11 0 38 -17 60 -38 45
-42 52 -75 25 -117 -20 -31 -12 -32 16 -3 11 12 20 34 20 49 0 20 7 32 27 41
14 7 28 18 30 23 5 15 -55 44 -97 47 -35 3 -35 3 -34 52 0 39 5 53 24 68 14
11 34 18 47 15 18 -3 23 2 29 27 3 17 11 36 16 43 7 8 0 16 -21 27 -40 21 -51
20 -51 -3z"/>
<path d="M2269 3393 l4 -48 9 33 c5 18 16 36 24 39 13 5 13 7 2 14 -33 21 -43
10 -39 -38z"/>
<path d="M2342 3305 c-18 -62 -15 -92 9 -98 21 -6 22 -10 16 -84 l-5 -78 12
50 c13 49 7 142 -13 220 l-8 30 -11 -40z"/>
<path d="M2250 3220 c-9 -16 -8 -20 5 -20 8 0 15 9 15 20 0 11 -2 20 -5 20 -2
0 -9 -9 -15 -20z"/>
<path d="M2260 3100 c0 -5 5 -10 11 -10 5 0 7 5 4 10 -3 6 -8 10 -11 10 -2 0
-4 -4 -4 -10z"/>
<path d="M2001 3020 c3 -21 28 -72 28 -59 1 19 21 29 58 29 23 0 23 1 8 16
-15 15 -96 27 -94 14z"/>
<path d="M2315 2978 c-23 -18 -32 -20 -56 -11 -35 14 -37 4 -4 -20 23 -16 26
-16 59 0 22 10 36 24 36 35 0 23 -1 23 -35 -4z"/>
<path d="M2128 2963 c12 -2 30 -2 40 0 9 3 -1 5 -23 4 -22 0 -30 -2 -17 -4z"/>
<path d="M2189 2948 c-7 -25 -7 -48 1 -53 6 -4 10 7 10 24 0 17 -2 31 -5 31
-3 0 -5 -1 -6 -2z"/>
<path d="M2320 2893 c-14 -9 -28 -22 -32 -27 -14 -20 -8 -65 12 -98 11 -18 20
-40 20 -49 0 -28 90 -102 188 -154 50 -27 92 -53 92 -57 0 -4 -14 -8 -31 -8
l-31 0 56 -64 c31 -35 56 -69 56 -74 0 -19 -71 -1 -102 26 -10 8 -24 12 -32 9
-17 -7 -55 21 -104 75 -41 46 -61 40 -32 -8 32 -56 25 -80 -16 -49 -27 20 -33
19 -26 -7 6 -27 24 -56 74 -123 71 -94 61 -93 137 -14 56 58 72 69 100 69 39
0 71 16 71 35 0 8 10 25 22 37 20 20 21 25 10 78 -23 107 -17 125 52 173 14
10 26 24 26 32 0 31 -30 44 -121 51 -81 6 -102 12 -189 54 -53 26 -113 62
-132 79 -20 17 -37 31 -40 31 -2 0 -15 -8 -28 -17z"/>
<path d="M2020 2775 c-22 -26 -100 -62 -165 -75 -133 -27 -286 -103 -353 -174
-28 -30 -52 -61 -52 -68 0 -25 23 -38 67 -38 34 0 45 -5 54 -22 7 -13 16 -26
22 -30 5 -3 9 -36 8 -72 -1 -59 1 -69 23 -89 14 -13 58 -33 98 -44 40 -12 107
-33 148 -48 64 -23 104 -29 269 -41 232 -16 278 -10 316 40 14 18 25 39 25 47
0 8 -26 33 -59 57 -32 23 -66 51 -76 62 -10 11 -21 17 -25 15 -5 -3 -24 17
-44 45 -24 34 -40 48 -51 44 -8 -4 -22 0 -31 7 -13 11 -13 7 2 -30 9 -23 14
-45 10 -48 -10 -11 -32 15 -71 87 -24 44 -44 69 -52 66 -7 -3 -16 2 -21 10 -8
14 -16 11 -55 -17 -26 -18 -47 -35 -47 -38 0 -3 -10 -21 -21 -40 l-21 -35 -18
24 -18 24 -49 -26 c-102 -54 -133 -43 -35 14 l57 33 -32 3 c-18 2 -39 12 -47
23 -12 17 -17 18 -40 8 -33 -16 -43 -6 -26 26 17 31 10 38 -24 25 -15 -5 -32
-10 -37 -10 -16 0 -10 17 10 26 11 5 39 27 63 49 38 36 135 82 213 101 11 3
29 22 40 42 14 25 30 39 53 46 18 5 31 14 29 19 -6 18 -23 18 -37 2z"/>
<path d="M2575 1870 c-10 -17 20 -44 40 -36 9 3 15 14 13 23 -4 21 -43 30 -53
13z"/>
<path d="M2973 1864 c-5 -14 11 -34 27 -34 3 0 11 4 19 9 19 12 6 41 -19 41
-11 0 -23 -7 -27 -16z"/>
<path d="M1585 1858 c-29 -17 -44 -40 -45 -68 0 -37 13 -52 77 -85 96 -50 78
-105 -29 -91 -44 6 -49 5 -46 -11 5 -24 75 -37 128 -23 32 9 44 18 55 42 20
50 3 81 -61 114 -64 33 -79 53 -59 80 10 15 25 19 65 17 43 -1 51 2 48 15 -4
21 -102 28 -133 10z"/>
<path d="M2433 1833 c-7 -2 -13 -14 -13 -25 0 -11 -8 -22 -20 -25 -25 -7 -26
-25 0 -40 15 -10 20 -26 22 -80 3 -63 5 -69 31 -81 28 -14 67 -8 67 9 0 5 -11
14 -25 19 -25 9 -26 13 -23 72 3 57 5 63 26 66 31 5 29 32 -3 32 -21 0 -25 5
-25 30 0 29 -9 35 -37 23z"/>
<path d="M1327 1754 c-33 -32 -41 -57 -33 -98 11 -60 76 -96 140 -78 52 14 43
32 -14 29 -41 -2 -54 2 -66 18 -23 32 -11 40 64 43 77 3 81 7 62 58 -15 39
-39 53 -86 54 -31 0 -48 -6 -67 -26z m97 -7 c10 -7 16 -22 14 -33 -3 -15 -12
-19 -47 -19 -51 0 -60 12 -31 43 24 25 39 27 64 9z"/>
<path d="M1780 1773 c0 -4 13 -48 29 -98 26 -85 30 -90 56 -90 25 0 29 5 47
63 10 34 23 62 27 62 9 0 24 -34 38 -90 7 -30 13 -35 37 -35 27 0 31 5 52 66
12 37 25 81 29 99 6 27 4 31 -12 28 -17 -3 -31 -36 -48 -111 -9 -44 -28 -27
-45 41 -18 72 -21 76 -55 68 -19 -5 -25 -13 -26 -34 -1 -36 -23 -95 -37 -100
-6 -2 -16 16 -21 40 -21 82 -26 93 -49 96 -12 2 -22 0 -22 -5z"/>
<path d="M2173 1773 c-7 -2 -13 -11 -13 -19 0 -13 33 -12 77 1 16 5 45 -24 40
-39 -3 -10 -24 -17 -89 -31 -33 -6 -52 -38 -44 -71 9 -34 48 -48 89 -30 23 9
37 10 48 3 9 -6 23 -7 32 -4 13 5 16 20 14 82 -2 67 -5 79 -26 96 -22 18 -96
25 -128 12z m105 -120 c5 -31 -39 -59 -67 -43 -12 6 -21 19 -21 30 0 42 82 54
88 13z"/>
<path d="M2575 1767 c-3 -7 -5 -52 -3 -98 3 -82 4 -84 28 -84 25 0 25 0 25 95
0 91 -1 95 -23 98 -12 2 -24 -3 -27 -11z"/>
<path d="M2704 1767 c-3 -8 -4 -52 -2 -98 3 -82 4 -84 28 -84 24 0 25 2 25 66
0 73 13 99 51 99 32 0 44 -28 44 -104 0 -64 1 -66 25 -66 25 0 25 1 25 78 0
93 -15 122 -63 122 -18 0 -42 -7 -54 -15 -19 -13 -22 -13 -27 0 -7 19 -45 20
-52 2z"/>
<path d="M2977 1773 c-3 -4 -4 -48 -4 -98 2 -89 2 -90 27 -90 25 0 25 0 25 95
0 90 -1 95 -22 98 -11 2 -23 0 -26 -5z"/>
<path d="M1727 1454 c-4 -4 -7 -74 -7 -156 0 -149 0 -149 23 -146 22 3 22 5
22 153 0 127 -2 150 -15 153 -9 1 -19 0 -23 -4z"/>
<path d="M2126 1438 c-3 -13 -6 -40 -6 -62 0 -37 -1 -38 -27 -31 -73 20 -122
-13 -130 -86 -8 -82 42 -126 113 -100 26 9 39 10 47 2 6 -6 19 -11 29 -11 17
0 18 10 16 152 -3 132 -5 153 -19 156 -10 2 -19 -6 -23 -20z m-17 -132 c19
-22 16 -83 -4 -106 -37 -41 -95 -10 -95 50 0 57 67 95 99 56z"/>
<path d="M2680 1450 c-18 -11 -4 -40 20 -40 13 0 20 7 20 19 0 22 -21 33 -40
21z"/>
<path d="M1844 1438 c-4 -6 1 -17 12 -25 15 -11 20 -11 32 1 8 8 11 19 8 25
-9 14 -43 14 -52 -1z"/>
<path d="M1224 1428 c-32 -15 -45 -51 -33 -88 9 -23 25 -38 68 -58 45 -23 57
-34 59 -55 5 -38 -34 -55 -91 -40 -47 13 -56 10 -41 -15 8 -12 28 -18 73 -20
57 -3 64 -1 91 27 17 16 30 39 30 51 0 23 -53 80 -75 80 -21 0 -65 40 -65 60
0 27 36 43 81 37 42 -5 50 -2 42 19 -6 17 -106 18 -139 2z"/>
<path d="M2819 1400 c-1 -5 -2 -15 -3 -21 0 -6 -9 -16 -18 -23 -24 -17 -23
-32 2 -39 17 -4 20 -14 20 -70 0 -75 14 -97 61 -97 33 0 40 25 9 33 -17 4 -20
14 -20 66 0 56 2 62 25 71 31 12 32 28 3 32 -17 2 -24 11 -26 31 -3 21 -9 27
-28 27 -13 0 -25 -4 -25 -10z"/>
<path d="M1506 1350 c-41 -13 -65 -38 -72 -77 -13 -71 35 -123 115 -123 53 0
101 45 101 96 0 54 -24 91 -68 103 -42 12 -37 12 -76 1z m84 -49 c15 -30 12
-82 -7 -103 -23 -25 -68 -23 -87 4 -20 29 -20 82 0 102 22 23 81 21 94 -3z"/>
<path d="M2291 1350 c-14 -3 -26 -11 -29 -18 -3 -9 8 -10 40 -6 33 5 47 2 57
-10 22 -26 6 -46 -36 -46 -53 0 -83 -23 -83 -64 0 -17 5 -37 12 -44 16 -16 71
-15 86 0 10 10 17 10 32 0 42 -26 50 -17 50 58 0 81 -13 115 -49 129 -28 10
-43 11 -80 1z m77 -127 c-6 -52 -88 -64 -88 -13 0 23 25 39 63 40 25 0 28 -3
25 -27z"/>
<path d="M1845 1333 c2 -10 4 -55 4 -100 1 -75 3 -83 20 -83 25 0 31 19 31
100 0 84 -6 100 -35 100 -17 0 -22 -5 -20 -17z"/>
<path d="M2495 1327 c-3 -12 -5 -56 -3 -97 3 -69 5 -75 26 -78 20 -3 22 1 22
46 0 73 16 109 51 117 16 4 29 13 29 21 0 17 -31 18 -49 2 -11 -10 -14 -10
-18 0 -8 22 -52 14 -58 -11z"/>
<path d="M2672 1253 c3 -93 4 -98 26 -101 22 -3 22 -1 22 97 l0 101 -25 0 -26
0 3 -97z"/>
<path d="M2965 1313 c8 -20 27 -62 41 -93 33 -74 30 -110 -13 -130 -38 -18
-43 -40 -9 -40 35 0 82 44 99 93 9 23 29 78 46 122 17 44 31 81 31 83 0 1 -9
2 -20 2 -21 0 -30 -14 -52 -90 -19 -64 -37 -57 -61 23 -19 62 -22 67 -49 67
l-28 0 15 -37z"/>
</g>
</svg>
